<svg xmlns="http://www.w3.org/2000/svg" xmlns:xlink="http://www.w3.org/1999/xlink" width="443" zoomAndPan="magnify" viewBox="0 0 332.25 159.749995" height="213" preserveAspectRatio="xMidYMid meet" version="1.0"><defs><g/></defs><g fill="#d9d9d9" fill-opacity="1"><g transform="translate(85.516944, 116.527234)"><g><path d="M 2.859375 0.140625 C 2.597656 0.140625 2.394531 0.0390625 2.25 -0.15625 C 2.113281 -0.363281 2.046875 -0.613281 2.046875 -0.90625 C 2.078125 -1.382812 2.171875 -1.671875 2.328125 -1.765625 C 2.484375 -1.859375 2.785156 -1.90625 3.234375 -1.90625 C 4.148438 -1.90625 4.832031 -2.070312 5.28125 -2.40625 C 5.726562 -2.738281 6.003906 -3.148438 6.109375 -3.640625 C 6.222656 -4.128906 6.296875 -4.769531 6.328125 -5.5625 L 6.328125 -24.46875 C 6.296875 -25.257812 6.222656 -25.898438 6.109375 -26.390625 C 6.003906 -26.878906 5.726562 -27.289062 5.28125 -27.625 C 4.832031 -27.957031 4.148438 -28.125 3.234375 -28.125 L 2.953125 -28.125 C 2.628906 -28.125 2.40625 -28.179688 2.28125 -28.296875 C 2.15625 -28.410156 2.078125 -28.6875 2.046875 -29.125 C 2.046875 -29.414062 2.113281 -29.660156 2.25 -29.859375 C 2.394531 -30.066406 2.597656 -30.171875 2.859375 -30.171875 C 4.953125 -30.078125 6.835938 -30.03125 8.515625 -30.03125 C 10.421875 -30.03125 12.40625 -30.078125 14.46875 -30.171875 C 14.75 -30.171875 14.960938 -30.066406 15.109375 -29.859375 C 15.253906 -29.660156 15.328125 -29.414062 15.328125 -29.125 C 15.296875 -28.644531 15.191406 -28.359375 15.015625 -28.265625 C 14.835938 -28.171875 14.546875 -28.125 14.140625 -28.125 C 13.210938 -28.125 12.523438 -27.957031 12.078125 -27.625 C 11.640625 -27.289062 11.363281 -26.878906 11.25 -26.390625 C 11.144531 -25.898438 11.078125 -25.257812 11.046875 -24.46875 L 11.046875 -4.859375 C 11.109375 -4.191406 11.1875 -3.675781 11.28125 -3.3125 C 11.375 -2.945312 11.65625 -2.613281 12.125 -2.3125 C 12.601562 -2.007812 13.351562 -1.875 14.375 -1.90625 L 18.65625 -1.90625 C 19.769531 -1.9375 20.609375 -2.117188 21.171875 -2.453125 C 21.742188 -2.785156 22.195312 -3.300781 22.53125 -4 C 22.863281 -4.695312 23.269531 -5.835938 23.75 -7.421875 C 23.96875 -7.992188 24.507812 -8.21875 25.375 -8.09375 C 25.65625 -8.03125 25.921875 -7.898438 26.171875 -7.703125 C 26.429688 -7.515625 26.546875 -7.28125 26.515625 -7 L 25.5625 -1 C 25.46875 -0.582031 25.320312 -0.3125 25.125 -0.1875 C 24.9375 -0.0625 24.617188 0 24.171875 0 L 8.5625 0 C 6.851562 0 4.953125 0.046875 2.859375 0.140625 Z M 2.859375 0.140625 "/></g></g></g><g fill="#d9d9d9" fill-opacity="1"><g transform="translate(109.452465, 116.527234)"><g><path d="M 2.859375 0.140625 C 2.566406 0.140625 2.347656 0.0390625 2.203125 -0.15625 C 2.066406 -0.363281 2 -0.613281 2 -0.90625 C 2.03125 -1.382812 2.128906 -1.671875 2.296875 -1.765625 C 2.472656 -1.859375 2.769531 -1.90625 3.1875 -1.90625 C 4.101562 -1.90625 4.785156 -2.070312 5.234375 -2.40625 C 5.679688 -2.738281 5.96875 -3.140625 6.09375 -3.609375 C 6.21875 -4.085938 6.296875 -4.738281 6.328125 -5.5625 L 6.328125 -24.46875 C 6.296875 -25.289062 6.21875 -25.9375 6.09375 -26.40625 C 5.96875 -26.882812 5.679688 -27.289062 5.234375 -27.625 C 4.785156 -27.957031 4.101562 -28.125 3.1875 -28.125 L 2.90625 -28.125 C 2.613281 -28.125 2.394531 -28.179688 2.25 -28.296875 C 2.113281 -28.410156 2.03125 -28.6875 2 -29.125 C 2 -29.414062 2.066406 -29.660156 2.203125 -29.859375 C 2.347656 -30.066406 2.566406 -30.171875 2.859375 -30.171875 C 4.921875 -30.078125 6.804688 -30.03125 8.515625 -30.03125 C 10.421875 -30.03125 12.40625 -30.078125 14.46875 -30.171875 C 14.75 -30.171875 14.960938 -30.066406 15.109375 -29.859375 C 15.253906 -29.660156 15.328125 -29.414062 15.328125 -29.125 C 15.296875 -28.644531 15.191406 -28.359375 15.015625 -28.265625 C 14.835938 -28.171875 14.53125 -28.125 14.09375 -28.125 C 13.164062 -28.125 12.476562 -27.957031 12.03125 -27.625 C 11.59375 -27.289062 11.316406 -26.878906 11.203125 -26.390625 C 11.097656 -25.898438 11.03125 -25.257812 11 -24.46875 L 11 -5.5625 C 11.03125 -4.769531 11.097656 -4.128906 11.203125 -3.640625 C 11.316406 -3.148438 11.59375 -2.738281 12.03125 -2.40625 C 12.476562 -2.070312 13.164062 -1.90625 14.09375 -1.90625 L 14.375 -1.90625 C 14.6875 -1.90625 14.914062 -1.847656 15.0625 -1.734375 C 15.207031 -1.628906 15.296875 -1.351562 15.328125 -0.90625 C 15.328125 -0.613281 15.253906 -0.363281 15.109375 -0.15625 C 14.960938 0.0390625 14.75 0.140625 14.46875 0.140625 C 12.4375 0.046875 10.46875 0 8.5625 0 C 6.820312 0 4.921875 0.046875 2.859375 0.140625 Z M 2.859375 0.140625 "/></g></g></g><g fill="#d9d9d9" fill-opacity="1"><g transform="translate(123.537569, 116.527234)"><g><path d="M 14.46875 0.46875 C 13.519531 -2.125 12.015625 -6.257812 9.953125 -11.9375 C 7.890625 -17.625 6.378906 -21.734375 5.421875 -24.265625 C 4.878906 -25.628906 4.351562 -26.582031 3.84375 -27.125 C 3.34375 -27.664062 2.601562 -28.03125 1.625 -28.21875 C 1.488281 -28.25 1.296875 -28.285156 1.046875 -28.328125 C 0.796875 -28.378906 0.628906 -28.476562 0.546875 -28.625 C 0.460938 -28.769531 0.421875 -29 0.421875 -29.3125 C 0.421875 -29.695312 0.523438 -29.953125 0.734375 -30.078125 C 0.941406 -30.203125 1.269531 -30.265625 1.71875 -30.265625 C 4.09375 -30.265625 5.898438 -29.898438 7.140625 -29.171875 C 8.378906 -28.441406 9.363281 -27.140625 10.09375 -25.265625 L 16.984375 -6.703125 L 17.140625 -6.703125 L 23.703125 -25.796875 C 23.890625 -26.335938 23.984375 -26.75 23.984375 -27.03125 C 23.984375 -27.476562 23.800781 -27.769531 23.4375 -27.90625 C 23.070312 -28.050781 22.460938 -28.125 21.609375 -28.125 L 21.328125 -28.125 C 21.003906 -28.125 20.78125 -28.179688 20.65625 -28.296875 C 20.53125 -28.410156 20.453125 -28.6875 20.421875 -29.125 C 20.421875 -29.414062 20.488281 -29.660156 20.625 -29.859375 C 20.769531 -30.066406 20.972656 -30.171875 21.234375 -30.171875 C 23.296875 -30.078125 25.023438 -30.03125 26.421875 -30.03125 C 27.015625 -30.03125 28.171875 -30.0625 29.890625 -30.125 L 30.890625 -30.171875 C 31.171875 -30.171875 31.382812 -30.066406 31.53125 -29.859375 C 31.675781 -29.660156 31.75 -29.414062 31.75 -29.125 C 31.71875 -28.6875 31.632812 -28.410156 31.5 -28.296875 C 31.375 -28.179688 31.15625 -28.125 30.84375 -28.125 C 29.476562 -28.125 28.4375 -27.898438 27.71875 -27.453125 C 27.007812 -27.015625 26.398438 -26.160156 25.890625 -24.890625 C 24.941406 -22.285156 23.410156 -18.070312 21.296875 -12.25 C 19.191406 -6.425781 17.660156 -2.1875 16.703125 0.46875 Z M 14.46875 0.46875 "/></g></g></g><g fill="#d9d9d9" fill-opacity="1"><g transform="translate(151.137253, 116.527234)"><g><path d="M 2.859375 0.140625 C 2.597656 0.140625 2.394531 0.0390625 2.25 -0.15625 C 2.113281 -0.363281 2.046875 -0.613281 2.046875 -0.90625 C 2.078125 -1.382812 2.171875 -1.671875 2.328125 -1.765625 C 2.484375 -1.859375 2.785156 -1.90625 3.234375 -1.90625 C 4.148438 -1.90625 4.832031 -2.070312 5.28125 -2.40625 C 5.726562 -2.738281 6.003906 -3.148438 6.109375 -3.640625 C 6.222656 -4.128906 6.296875 -4.769531 6.328125 -5.5625 L 6.328125 -24.46875 C 6.296875 -25.257812 6.222656 -25.898438 6.109375 -26.390625 C 6.003906 -26.878906 5.726562 -27.289062 5.28125 -27.625 C 4.832031 -27.957031 4.148438 -28.125 3.234375 -28.125 L 2.953125 -28.125 C 2.628906 -28.125 2.40625 -28.179688 2.28125 -28.296875 C 2.15625 -28.410156 2.078125 -28.6875 2.046875 -29.125 C 2.046875 -29.414062 2.113281 -29.660156 2.25 -29.859375 C 2.394531 -30.066406 2.597656 -30.171875 2.859375 -30.171875 C 4.953125 -30.078125 6.835938 -30.03125 8.515625 -30.03125 L 23.46875 -30.03125 C 24.289062 -30.03125 24.703125 -29.648438 24.703125 -28.890625 L 24.84375 -22.21875 C 24.84375 -21.9375 24.695312 -21.707031 24.40625 -21.53125 C 24.125 -21.363281 23.84375 -21.28125 23.5625 -21.28125 C 23.175781 -21.28125 22.835938 -21.347656 22.546875 -21.484375 C 22.265625 -21.628906 22.109375 -21.84375 22.078125 -22.125 C 21.828125 -23.6875 21.550781 -24.867188 21.25 -25.671875 C 20.945312 -26.484375 20.5 -27.085938 19.90625 -27.484375 C 19.320312 -27.878906 18.492188 -28.09375 17.421875 -28.125 L 11.046875 -28.125 L 11.046875 -16.046875 L 19.65625 -16.046875 C 19.875 -16.003906 20.046875 -15.878906 20.171875 -15.671875 C 20.304688 -15.472656 20.375 -15.226562 20.375 -14.9375 C 20.375 -14.6875 20.304688 -14.46875 20.171875 -14.28125 C 20.046875 -14.09375 19.875 -14 19.65625 -14 L 11.046875 -14 L 11.046875 -5 C 11.109375 -4.332031 11.1875 -3.800781 11.28125 -3.40625 C 11.375 -3.007812 11.65625 -2.648438 12.125 -2.328125 C 12.601562 -2.015625 13.351562 -1.875 14.375 -1.90625 L 18.75 -1.90625 C 19.863281 -1.9375 20.703125 -2.117188 21.265625 -2.453125 C 21.835938 -2.785156 22.289062 -3.300781 22.625 -4 C 22.957031 -4.695312 23.363281 -5.835938 23.84375 -7.421875 C 24.0625 -7.992188 24.601562 -8.21875 25.46875 -8.09375 C 25.78125 -8.03125 26.054688 -7.898438 26.296875 -7.703125 C 26.535156 -7.515625 26.640625 -7.28125 26.609375 -7 L 25.65625 -1 C 25.5625 -0.582031 25.414062 -0.3125 25.21875 -0.1875 C 25.03125 -0.0625 24.710938 0 24.265625 0 L 8.5625 0 C 6.851562 0 4.953125 0.046875 2.859375 0.140625 Z M 2.859375 0.140625 "/></g></g></g><g fill="#d9d9d9" fill-opacity="1"><g transform="translate(176.16726, 116.527234)"><g><path d="M 12.609375 0.953125 C 9.273438 0.953125 6.726562 0.375 4.96875 -0.78125 C 3.207031 -1.9375 2.328125 -3.644531 2.328125 -5.90625 C 2.328125 -7.039062 2.71875 -7.984375 3.5 -8.734375 C 4.28125 -9.484375 5.285156 -9.859375 6.515625 -9.859375 C 7.242188 -9.816406 7.796875 -9.628906 8.171875 -9.296875 C 8.554688 -8.972656 8.75 -8.664062 8.75 -8.375 C 8.75 -8.34375 8.59375 -8.226562 8.28125 -8.03125 C 7.96875 -7.84375 7.679688 -7.554688 7.421875 -7.171875 C 7.171875 -6.796875 7.046875 -6.273438 7.046875 -5.609375 C 7.046875 -4.117188 7.492188 -2.96875 8.390625 -2.15625 C 9.296875 -1.351562 10.703125 -0.953125 12.609375 -0.953125 C 13.910156 -0.953125 15.050781 -1.203125 16.03125 -1.703125 C 17.019531 -2.210938 17.773438 -2.890625 18.296875 -3.734375 C 18.816406 -4.578125 19.078125 -5.457031 19.078125 -6.375 C 19.078125 -7.519531 18.753906 -8.503906 18.109375 -9.328125 C 17.460938 -10.148438 16.660156 -10.835938 15.703125 -11.390625 C 14.753906 -11.953125 13.453125 -12.597656 11.796875 -13.328125 C 9.898438 -14.179688 8.363281 -14.957031 7.1875 -15.65625 C 6.007812 -16.351562 5.007812 -17.28125 4.1875 -18.4375 C 3.363281 -19.601562 2.953125 -21.039062 2.953125 -22.75 C 2.953125 -25.507812 3.894531 -27.570312 5.78125 -28.9375 C 7.664062 -30.300781 10.148438 -30.984375 13.234375 -30.984375 C 15.640625 -30.984375 17.738281 -30.472656 19.53125 -29.453125 C 21.320312 -28.441406 22.21875 -26.953125 22.21875 -24.984375 C 22.21875 -23.835938 21.828125 -22.890625 21.046875 -22.140625 C 20.273438 -21.398438 19.269531 -21.03125 18.03125 -21.03125 C 17.300781 -21.0625 16.742188 -21.242188 16.359375 -21.578125 C 15.984375 -21.910156 15.796875 -22.222656 15.796875 -22.515625 C 15.796875 -22.546875 16.007812 -22.65625 16.4375 -22.84375 C 16.875 -23.03125 17.253906 -23.3125 17.578125 -23.6875 C 17.910156 -24.070312 18.078125 -24.597656 18.078125 -25.265625 C 18.078125 -26.441406 17.625 -27.363281 16.71875 -28.03125 C 15.820312 -28.695312 14.675781 -29.03125 13.28125 -29.03125 C 11.34375 -29.03125 9.875 -28.578125 8.875 -27.671875 C 7.875 -26.765625 7.375 -25.648438 7.375 -24.328125 C 7.375 -23.210938 7.675781 -22.28125 8.28125 -21.53125 C 8.882812 -20.789062 9.851562 -20.054688 11.1875 -19.328125 C 12.257812 -18.753906 13.429688 -18.179688 14.703125 -17.609375 C 16.734375 -16.691406 18.34375 -15.847656 19.53125 -15.078125 C 20.726562 -14.316406 21.726562 -13.316406 22.53125 -12.078125 C 23.34375 -10.847656 23.75 -9.3125 23.75 -7.46875 C 23.75 -5.882812 23.25 -4.445312 22.25 -3.15625 C 21.25 -1.875 19.898438 -0.867188 18.203125 -0.140625 C 16.503906 0.585938 14.640625 0.953125 12.609375 0.953125 Z M 12.609375 0.953125 "/></g></g></g><g fill="#d9d9d9" fill-opacity="1"><g transform="translate(117.014482, 79.522093)"><g><path d="M 1.359375 0 L 1.359375 -0.34375 C 1.773438 -0.46875 2.054688 -0.734375 2.203125 -1.140625 C 2.359375 -1.554688 2.4375 -2.3125 2.4375 -3.40625 L 2.4375 -15.34375 C 2.4375 -16.445312 2.359375 -17.195312 2.203125 -17.59375 C 2.054688 -18 1.773438 -18.265625 1.359375 -18.390625 L 1.359375 -18.734375 L 13.8125 -18.734375 L 14.109375 -15.25 L 13.8125 -15.171875 C 13.34375 -16.347656 12.691406 -17.164062 11.859375 -17.625 C 11.035156 -18.09375 9.9375 -18.328125 8.5625 -18.328125 L 4.625 -18.328125 L 4.625 -10.21875 L 8.0625 -10.21875 C 9.070312 -10.21875 9.859375 -10.285156 10.421875 -10.421875 C 10.984375 -10.554688 11.394531 -10.757812 11.65625 -11.03125 C 11.914062 -11.3125 12.097656 -11.648438 12.203125 -12.046875 L 12.53125 -12.046875 L 12.53125 -8 L 12.203125 -8 C 12.097656 -8.414062 11.914062 -8.753906 11.65625 -9.015625 C 11.394531 -9.285156 10.984375 -9.488281 10.421875 -9.625 C 9.859375 -9.757812 9.070312 -9.828125 8.0625 -9.828125 L 4.625 -9.828125 L 4.625 -1.609375 C 4.625 -0.804688 5.023438 -0.40625 5.828125 -0.40625 L 9.3125 -0.40625 C 10.59375 -0.40625 11.648438 -0.625 12.484375 -1.0625 C 13.328125 -1.507812 13.992188 -2.359375 14.484375 -3.609375 L 14.78125 -3.5625 L 14.5625 0 Z M 1.359375 0 "/></g></g></g><g fill="#d9d9d9" fill-opacity="1"><g transform="translate(138.35316, 79.522093)"><g><path d="M 1.359375 0 L 1.359375 -0.34375 C 1.773438 -0.46875 2.054688 -0.734375 2.203125 -1.140625 C 2.359375 -1.554688 2.4375 -2.3125 2.4375 -3.40625 L 2.4375 -15.34375 C 2.4375 -16.445312 2.359375 -17.195312 2.203125 -17.59375 C 2.054688 -18 1.773438 -18.265625 1.359375 -18.390625 L 1.359375 -18.734375 L 13.8125 -18.734375 L 14.109375 -15.25 L 13.8125 -15.171875 C 13.34375 -16.347656 12.691406 -17.164062 11.859375 -17.625 C 11.035156 -18.09375 9.9375 -18.328125 8.5625 -18.328125 L 4.625 -18.328125 L 4.625 -10.21875 L 8.0625 -10.21875 C 9.070312 -10.21875 9.859375 -10.285156 10.421875 -10.421875 C 10.984375 -10.554688 11.394531 -10.757812 11.65625 -11.03125 C 11.914062 -11.3125 12.097656 -11.648438 12.203125 -12.046875 L 12.53125 -12.046875 L 12.53125 -8 L 12.203125 -8 C 12.097656 -8.414062 11.914062 -8.753906 11.65625 -9.015625 C 11.394531 -9.285156 10.984375 -9.488281 10.421875 -9.625 C 9.859375 -9.757812 9.070312 -9.828125 8.0625 -9.828125 L 4.625 -9.828125 L 4.625 -1.609375 C 4.625 -0.804688 5.023438 -0.40625 5.828125 -0.40625 L 9.3125 -0.40625 C 10.59375 -0.40625 11.648438 -0.625 12.484375 -1.0625 C 13.328125 -1.507812 13.992188 -2.359375 14.484375 -3.609375 L 14.78125 -3.5625 L 14.5625 0 Z M 1.359375 0 "/></g></g></g><g fill="#d9d9d9" fill-opacity="1"><g transform="translate(159.691838, 79.522093)"><g><path d="M 7.625 0.265625 C 6.21875 0.265625 4.953125 0.0625 3.828125 -0.34375 C 2.703125 -0.757812 1.828125 -1.1875 1.203125 -1.625 L 1.078125 -5.359375 L 1.359375 -5.40625 C 1.722656 -4.476562 2.191406 -3.613281 2.765625 -2.8125 C 3.347656 -2.019531 4.082031 -1.390625 4.96875 -0.921875 C 5.863281 -0.453125 6.925781 -0.21875 8.15625 -0.21875 C 8.875 -0.21875 9.535156 -0.363281 10.140625 -0.65625 C 10.742188 -0.945312 11.226562 -1.359375 11.59375 -1.890625 C 11.96875 -2.429688 12.15625 -3.0625 12.15625 -3.78125 C 12.15625 -4.457031 11.972656 -5.046875 11.609375 -5.546875 C 11.253906 -6.046875 10.789062 -6.484375 10.21875 -6.859375 C 9.65625 -7.234375 9.054688 -7.554688 8.421875 -7.828125 C 7.785156 -8.109375 7.179688 -8.363281 6.609375 -8.59375 C 5.554688 -9.019531 4.640625 -9.453125 3.859375 -9.890625 C 3.085938 -10.328125 2.492188 -10.851562 2.078125 -11.46875 C 1.660156 -12.082031 1.453125 -12.863281 1.453125 -13.8125 C 1.453125 -14.863281 1.722656 -15.769531 2.265625 -16.53125 C 2.804688 -17.289062 3.566406 -17.878906 4.546875 -18.296875 C 5.523438 -18.710938 6.664062 -18.921875 7.96875 -18.921875 C 9.1875 -18.921875 10.234375 -18.785156 11.109375 -18.515625 C 11.984375 -18.253906 12.679688 -17.976562 13.203125 -17.6875 L 13.296875 -14.59375 L 13.03125 -14.5 C 12.53125 -15.664062 11.800781 -16.625 10.84375 -17.375 C 9.894531 -18.125 8.65625 -18.5 7.125 -18.5 C 6.40625 -18.5 5.738281 -18.359375 5.125 -18.078125 C 4.507812 -17.804688 4.019531 -17.410156 3.65625 -16.890625 C 3.289062 -16.367188 3.109375 -15.726562 3.109375 -14.96875 C 3.109375 -14.34375 3.257812 -13.796875 3.5625 -13.328125 C 3.863281 -12.867188 4.265625 -12.46875 4.765625 -12.125 C 5.265625 -11.78125 5.804688 -11.476562 6.390625 -11.21875 C 6.984375 -10.96875 7.566406 -10.722656 8.140625 -10.484375 C 9.140625 -10.097656 10.078125 -9.679688 10.953125 -9.234375 C 11.828125 -8.785156 12.535156 -8.238281 13.078125 -7.59375 C 13.617188 -6.957031 13.890625 -6.128906 13.890625 -5.109375 C 13.890625 -4.003906 13.585938 -3.046875 12.984375 -2.234375 C 12.378906 -1.421875 11.597656 -0.800781 10.640625 -0.375 C 9.679688 0.0507812 8.675781 0.265625 7.625 0.265625 Z M 7.625 0.265625 "/></g></g></g><g fill="#d9d9d9" fill-opacity="1"><g transform="translate(179.902039, 76.363409)"><g><path d="M 5.125 0.265625 C 4.382812 0.265625 3.703125 0.140625 3.078125 -0.109375 C 2.453125 -0.367188 1.941406 -0.757812 1.546875 -1.28125 C 1.160156 -1.8125 0.96875 -2.46875 0.96875 -3.25 C 0.96875 -3.894531 1.15625 -4.457031 1.53125 -4.9375 C 1.914062 -5.414062 2.457031 -5.710938 3.15625 -5.828125 L 3.15625 -5.875 C 2.601562 -6.28125 2.328125 -6.789062 2.328125 -7.40625 C 2.328125 -7.988281 2.535156 -8.457031 2.953125 -8.8125 C 3.378906 -9.164062 3.957031 -9.34375 4.6875 -9.34375 C 5.21875 -9.34375 5.660156 -9.222656 6.015625 -8.984375 C 6.378906 -8.753906 6.5625 -8.414062 6.5625 -7.96875 C 6.5625 -7.6875 6.476562 -7.441406 6.3125 -7.234375 C 6.15625 -7.035156 5.941406 -6.9375 5.671875 -6.9375 C 5.503906 -6.9375 5.359375 -6.976562 5.234375 -7.0625 C 5.117188 -7.15625 5.0625 -7.234375 5.0625 -7.296875 C 5.0625 -7.304688 5.097656 -7.34375 5.171875 -7.40625 C 5.253906 -7.476562 5.328125 -7.5625 5.390625 -7.65625 C 5.460938 -7.757812 5.5 -7.878906 5.5 -8.015625 C 5.5 -8.273438 5.40625 -8.476562 5.21875 -8.625 C 5.039062 -8.78125 4.816406 -8.859375 4.546875 -8.859375 C 4.128906 -8.859375 3.800781 -8.726562 3.5625 -8.46875 C 3.332031 -8.21875 3.21875 -7.90625 3.21875 -7.53125 C 3.21875 -6.882812 3.484375 -6.414062 4.015625 -6.125 L 4.453125 -6.125 C 4.597656 -6.125 4.691406 -6.109375 4.734375 -6.078125 C 4.785156 -6.054688 4.816406 -5.96875 4.828125 -5.8125 C 4.828125 -5.726562 4.800781 -5.65625 4.75 -5.59375 C 4.707031 -5.53125 4.648438 -5.5 4.578125 -5.5 L 4.109375 -5.5 C 3.535156 -5.445312 3.101562 -5.222656 2.8125 -4.828125 C 2.519531 -4.429688 2.375 -3.972656 2.375 -3.453125 C 2.375 -2.890625 2.503906 -2.394531 2.765625 -1.96875 C 3.035156 -1.550781 3.40625 -1.226562 3.875 -1 C 4.34375 -0.769531 4.875 -0.65625 5.46875 -0.65625 C 6.113281 -0.65625 6.703125 -0.789062 7.234375 -1.0625 C 7.773438 -1.332031 8.203125 -1.703125 8.515625 -2.171875 C 8.835938 -2.640625 9 -3.171875 9 -3.765625 C 9 -4.265625 8.859375 -4.703125 8.578125 -5.078125 C 8.296875 -5.460938 7.90625 -5.65625 7.40625 -5.65625 C 7.15625 -5.65625 6.90625 -5.582031 6.65625 -5.4375 C 6.414062 -5.289062 6.296875 -5.085938 6.296875 -4.828125 C 6.296875 -4.679688 6.332031 -4.554688 6.40625 -4.453125 C 6.488281 -4.359375 6.601562 -4.296875 6.75 -4.265625 C 6.976562 -4.242188 7.160156 -4.289062 7.296875 -4.40625 C 7.441406 -4.519531 7.523438 -4.582031 7.546875 -4.59375 C 7.585938 -4.582031 7.640625 -4.519531 7.703125 -4.40625 C 7.773438 -4.300781 7.8125 -4.175781 7.8125 -4.03125 C 7.8125 -3.769531 7.71875 -3.5625 7.53125 -3.40625 C 7.351562 -3.257812 7.132812 -3.1875 6.875 -3.1875 C 6.539062 -3.1875 6.269531 -3.320312 6.0625 -3.59375 C 5.863281 -3.863281 5.765625 -4.207031 5.765625 -4.625 C 5.765625 -5.257812 5.929688 -5.742188 6.265625 -6.078125 C 6.597656 -6.410156 6.992188 -6.632812 7.453125 -6.75 C 7.910156 -6.875 8.503906 -6.976562 9.234375 -7.0625 C 9.867188 -7.125 10.335938 -7.207031 10.640625 -7.3125 C 10.835938 -7.375 11 -7.46875 11.125 -7.59375 C 11.25 -7.726562 11.3125 -7.875 11.3125 -8.03125 C 11.3125 -8.289062 11.148438 -8.445312 10.828125 -8.5 C 10.597656 -8.519531 10.410156 -8.472656 10.265625 -8.359375 C 10.128906 -8.242188 10.050781 -8.179688 10.03125 -8.171875 C 9.976562 -8.179688 9.914062 -8.25 9.84375 -8.375 C 9.78125 -8.507812 9.757812 -8.660156 9.78125 -8.828125 C 9.820312 -9.078125 9.925781 -9.265625 10.09375 -9.390625 C 10.269531 -9.515625 10.476562 -9.578125 10.71875 -9.578125 C 10.914062 -9.578125 11.078125 -9.546875 11.203125 -9.484375 C 11.421875 -9.390625 11.578125 -9.234375 11.671875 -9.015625 C 11.765625 -8.804688 11.8125 -8.578125 11.8125 -8.328125 C 11.8125 -7.847656 11.660156 -7.429688 11.359375 -7.078125 C 11.054688 -6.722656 10.648438 -6.445312 10.140625 -6.25 C 9.628906 -6.0625 9.066406 -5.96875 8.453125 -5.96875 C 9.210938 -5.332031 9.59375 -4.59375 9.59375 -3.75 C 9.59375 -2.9375 9.394531 -2.226562 9 -1.625 C 8.601562 -1.019531 8.066406 -0.550781 7.390625 -0.21875 C 6.710938 0.101562 5.957031 0.265625 5.125 0.265625 Z M 5.125 0.265625 "/></g></g></g><g fill="#508991" fill-opacity="1"><g transform="translate(64.813112, 101.889242)"><g><path d="M 4.25 0 L 4.25 -1.078125 C 5.53125 -1.472656 6.40625 -2.304688 6.875 -3.578125 C 7.351562 -4.859375 7.59375 -7.195312 7.59375 -10.59375 L 7.59375 -47.8125 C 7.59375 -51.257812 7.351562 -53.609375 6.875 -54.859375 C 6.40625 -56.109375 5.53125 -56.929688 4.25 -57.328125 L 4.25 -58.40625 L 23.78125 -58.40625 C 30.226562 -58.40625 34.859375 -57.414062 37.671875 -55.4375 C 40.484375 -53.46875 41.890625 -50.785156 41.890625 -47.390625 C 41.890625 -44.554688 40.882812 -41.96875 38.875 -39.625 C 36.875 -37.289062 33.484375 -35.679688 28.703125 -34.796875 C 33.265625 -34.566406 36.988281 -33.726562 39.875 -32.28125 C 42.769531 -30.84375 44.910156 -28.984375 46.296875 -26.703125 C 47.691406 -24.421875 48.390625 -21.914062 48.390625 -19.1875 C 48.453125 -16.851562 48.007812 -14.546875 47.0625 -12.265625 C 46.113281 -9.984375 44.582031 -7.925781 42.46875 -6.09375 C 40.351562 -4.257812 37.554688 -2.785156 34.078125 -1.671875 C 30.609375 -0.554688 26.34375 0 21.28125 0 Z M 14.4375 -8.515625 C 14.4375 -5.503906 14.710938 -3.539062 15.265625 -2.625 C 15.828125 -1.707031 16.992188 -1.25 18.765625 -1.25 L 22.03125 -1.25 C 26.59375 -1.25 30.234375 -1.929688 32.953125 -3.296875 C 35.679688 -4.660156 37.671875 -6.535156 38.921875 -8.921875 C 40.171875 -11.316406 40.796875 -14.046875 40.796875 -17.109375 C 40.796875 -20.328125 40.179688 -23.175781 38.953125 -25.65625 C 37.734375 -28.132812 35.800781 -30.09375 33.15625 -31.53125 C 30.519531 -32.976562 27.113281 -33.703125 22.9375 -33.703125 L 14.4375 -33.703125 Z M 14.4375 -34.953125 L 22.1875 -34.953125 C 26.3125 -34.953125 29.359375 -36.007812 31.328125 -38.125 C 33.304688 -40.238281 34.296875 -42.828125 34.296875 -45.890625 C 34.296875 -49.335938 33.113281 -52.078125 30.75 -54.109375 C 28.382812 -56.140625 25.0625 -57.15625 20.78125 -57.15625 L 14.4375 -57.15625 Z M 14.4375 -34.953125 "/></g></g></g><g fill="#d9d9d9" fill-opacity="1"><g transform="translate(61.336075, 122.888038)"><g><path d="M 17.765625 -4.734375 C 14.742188 -3.742188 11.84375 -3.597656 9.0625 -4.296875 C 6.28125 -4.992188 3.875 -6.328125 1.84375 -8.296875 C -0.175781 -10.273438 -1.628906 -12.632812 -2.515625 -15.375 C -3.609375 -18.71875 -3.800781 -21.867188 -3.09375 -24.828125 C -2.394531 -27.796875 -1.085938 -30.320312 0.828125 -32.40625 C 2.753906 -34.5 4.925781 -35.941406 7.34375 -36.734375 C 10.394531 -37.722656 13.320312 -37.878906 16.125 -37.203125 C 18.9375 -36.523438 21.351562 -35.203125 23.375 -33.234375 C 25.394531 -31.265625 26.851562 -28.914062 27.75 -26.1875 C 28.832031 -22.84375 29.019531 -19.671875 28.3125 -16.671875 C 27.601562 -13.679688 26.269531 -11.140625 24.3125 -9.046875 C 22.363281 -6.953125 20.179688 -5.515625 17.765625 -4.734375 Z M 17.03125 -6.8125 C 19.195312 -7.519531 20.789062 -8.75 21.8125 -10.5 C 22.84375 -12.257812 23.359375 -14.347656 23.359375 -16.765625 C 23.359375 -19.179688 22.929688 -21.707031 22.078125 -24.34375 C 21.273438 -26.789062 20.175781 -28.921875 18.78125 -30.734375 C 17.382812 -32.546875 15.753906 -33.828125 13.890625 -34.578125 C 12.035156 -35.328125 10.054688 -35.359375 7.953125 -34.671875 C 4.773438 -33.640625 2.820312 -31.515625 2.09375 -28.296875 C 1.363281 -25.085938 1.664062 -21.429688 3 -17.328125 C 3.800781 -14.847656 4.898438 -12.691406 6.296875 -10.859375 C 7.691406 -9.023438 9.304688 -7.71875 11.140625 -6.9375 C 12.972656 -6.164062 14.9375 -6.125 17.03125 -6.8125 Z M 17.03125 -6.8125 "/></g></g></g></svg>